<?xml version="1.0" encoding="utf-8"?>
<!-- Generator: Adobe Illustrator 24.1.2, SVG Export Plug-In . SVG Version: 6.00 Build 0)  -->
<svg version="1.1" id="Layer_1" xmlns="http://www.w3.org/2000/svg" xmlns:xlink="http://www.w3.org/1999/xlink" x="0px" y="0px"
	 viewBox="0 0 1000 1000" style="enable-background:new 0 0 1000 1000;" xml:space="preserve">
<style type="text/css">
	.st0{fill:#424242;}
</style>
<g id="Your_design">
</g>
<g id="Guides">
	<g>
		<g id="XMLID_1_">
			<path id="XMLID_11066_" class="st0" d="M257.3,477.5h133.7c13.6,0,24.6-11,24.6-24.6s-11-24.6-24.6-24.6H257.3
				c-13.6,0-24.6,11-24.6,24.6S243.6,477.5,257.3,477.5z"/>
			<path id="XMLID_11065_" class="st0" d="M415.5,547.1c0-13.6-11-24.6-24.6-24.6H257.3c-13.6,0-24.6,11-24.6,24.6
				s11,24.6,24.6,24.6h133.7C404.5,571.7,415.5,560.7,415.5,547.1z"/>
		</g>
		<g id="XMLID_11056_">
			<g id="XMLID_11058_">
				<path id="XMLID_11062_" class="st0" d="M408.5,289.2h227.2c13.6,0,24.6-11,24.6-24.6s-11-24.6-24.6-24.6H408.5
					c-13.6,0-24.6,11-24.6,24.6C383.9,278.2,394.9,289.2,408.5,289.2z"/>
				<path id="XMLID_11061_" class="st0" d="M301.5,383.4h441.3c13.6,0,24.6-11,24.6-24.6s-11-24.6-24.6-24.6H301.5
					c-13.6,0-24.6,11-24.6,24.6S287.9,383.4,301.5,383.4z"/>
				<path id="XMLID_11060_" class="st0" d="M635.7,710.8H408.5c-13.6,0-24.6,11-24.6,24.6s11,24.6,24.6,24.6h227.2
					c13.6,0,24.6-11,24.6-24.6C660.3,721.8,649.3,710.8,635.7,710.8z"/>
				<path id="XMLID_11059_" class="st0" d="M742.8,616.6H301.5c-13.6,0-24.6,11-24.6,24.6s11,24.6,24.6,24.6h441.3
					c13.6,0,24.6-11,24.6-24.6S756.3,616.6,742.8,616.6z"/>
			</g>
		</g>
	</g>
</g>
</svg>
